<?xml version="1.0" encoding="utf-8"?>
<!-- Generator: Adobe Illustrator 26.2.1, SVG Export Plug-In . SVG Version: 6.00 Build 0)  -->
<svg version="1.1" id="Layer_1" xmlns="http://www.w3.org/2000/svg" xmlns:xlink="http://www.w3.org/1999/xlink" x="0px" y="0px"
	 viewBox="0 0 100 100" style="enable-background:new 0 0 100 100;" xml:space="preserve">
<g>
	<path d="M50,0C22.5,0,0.2,22.3,0.2,49.8S22.5,99.7,50,99.7s49.8-22.3,49.8-49.8S77.5,0,50,0z M55.8,76.8v6.9c0,1.6-1.3,2.8-2.8,2.8
		h-2.8c-1.6,0-2.8-1.3-2.8-2.8v-6.2c-5.6-0.2-11-1.6-14.5-3.3c-0.6-0.3-1.1-1-1-1.7l1.9-7.6c0.1-0.4,0.4-0.8,0.7-1
		c0.4-0.2,0.8-0.2,1.2,0c3.6,1.7,8.2,3.1,13.2,3.1c5.1,0,8.5-2,8.5-5.5c0-3.4-2.9-5.5-9.4-7.8c-9.5-3.2-15.9-7.7-15.9-16.3
		c0-7.8,6.8-14,15.2-15.9V16c0-1.6,1.3-2.8,2.8-2.8H53c1.6,0,2.8,1.3,2.8,2.8v5c5.6,0.2,8.9,1.2,11.8,2.4c0.7,0.3,1,1,0.8,1.7
		l-1.9,7.2c-0.1,0.4-0.4,0.8-0.8,0.9c-0.4,0.2-0.8,0.2-1.2,0c-2.4-1-6.1-2.4-11.3-2.4c-5.8,0-7.7,2.5-7.7,5c0,2.9,3.1,4.8,10.7,7.7
		c10.6,3.7,15.1,8.6,15.1,16.7C71.4,68.2,64.3,75,55.8,76.8z"/>
</g>
</svg>
